<?xml version="1.0" encoding="utf-8"?>
<!-- Generator: Adobe Illustrator 24.0.1, SVG Export Plug-In . SVG Version: 6.00 Build 0)  -->
<svg version="1.1" id="Layer_1" xmlns="http://www.w3.org/2000/svg" xmlns:xlink="http://www.w3.org/1999/xlink" x="0px" y="0px"
	 viewBox="0 0 300 300" style="enable-background:new 0 0 300 300;" xml:space="preserve">
<style type="text/css">
	.st0{fill:#FFFFFF;}
</style>
<g>
	<g>
		<path class="st0" d="M150,0C67.2,0,0,67.2,0,150c0,82.8,67.2,150,150,150s150-67.2,150-150C300,67.2,232.8,0,150,0z M150,52.7
			l88.8,55.3H61.2L150,52.7z M239.9,196.4L239.9,196.4c0,8.9-7.2,16.1-16.1,16.1H76.2c-8.9,0-16.1-7.2-16.1-16.1v-84.9
			c0-0.9,0.1-1.9,0.3-2.7l84.8,52.9c0.1,0.1,0.2,0.1,0.3,0.2c0.1,0.1,0.2,0.1,0.3,0.2c0.6,0.3,1.2,0.6,1.8,0.7c0.1,0,0.1,0,0.2,0
			c0.7,0.2,1.4,0.3,2.1,0.3h0c0,0,0,0,0,0c0.7,0,1.4-0.1,2.1-0.3c0.1,0,0.1,0,0.2,0c0.6-0.2,1.2-0.4,1.8-0.7
			c0.1-0.1,0.2-0.1,0.3-0.2c0.1-0.1,0.2-0.1,0.3-0.2l84.8-52.9c0.2,0.9,0.3,1.8,0.3,2.7L239.9,196.4L239.9,196.4z"/>
	</g>
</g>
</svg>
