<?xml version="1.0" encoding="utf-8"?>
<!-- Generator: Adobe Illustrator 24.0.1, SVG Export Plug-In . SVG Version: 6.00 Build 0)  -->
<svg version="1.1" id="Layer_1" xmlns="http://www.w3.org/2000/svg" xmlns:xlink="http://www.w3.org/1999/xlink" x="0px" y="0px"
	 viewBox="0 0 512 512" style="enable-background:new 0 0 512 512;" xml:space="preserve">
<style type="text/css">
	.st0{fill:#FCFCFC;}
</style>
<path class="st0" d="M256,0C115.4,0,0,115.4,0,256c0,120,84.2,229,196,256v-84.7c-11.1,2.4-21.3,2.5-32.6-0.8
	c-15.1-4.5-27.4-14.5-36.5-29.9c-5.8-9.8-16.1-20.5-26.9-19.7L97.4,347c23.3-2,43.4,14.2,55.3,34.2c5.3,8.9,11.4,14.2,19.2,16.5
	c7.6,2.2,15.7,1.2,25.2-2.2c2.4-19,11.1-26.1,17.6-36.1v0c-66.7-9.9-93.3-45.3-103.8-73.2c-14-37.1-6.5-83.4,18.2-112.7
	c0.5-0.6,1.3-2.1,1-3.1c-11.3-34.2,2.5-62.5,3-65.6c13.1,3.9,15.2-3.9,56.8,21.4l7.2,4.3c3,1.8,2.1,0.8,5.1,0.5
	c17.4-4.7,35.7-7.3,53.7-7.6c18.2,0.2,36.4,2.8,54.5,7.8l2.3,0.2c-0.2,0,0.6-0.1,2-1c52-31.5,50.1-21.2,64-25.7
	c0.5,3,14.1,31.8,2.9,65.6c-1.5,4.7,45.1,47.3,19.2,115.8c-10.5,27.9-37.1,63.3-103.8,73.3v0c8.5,13,18.8,20,18.8,46.8V512
	c111.8-27,196-136,196-256C512,115.4,396.6,0,256,0z"/>
</svg>
