<svg xmlns="http://www.w3.org/2000/svg" width="16" height="16" viewBox="0 0 16 16">
  <g id="Group_47" data-name="Group 47" transform="translate(-30 -261)">
    <g id="Group_26" data-name="Group 26" transform="translate(-263.835 630.628)">
      <path id="Path_5" data-name="Path 5" d="M97.485,86.174l-1.817-3.757a6.684,6.684,0,0,1,1.745-8.049,40.321,40.321,0,0,0,4.07-3.843l.32-.351.744.984a12.8,12.8,0,0,1,2.034,3.812Z" transform="translate(199.835 -439.802)" fill="#00aa95"/>
      <g id="Group_23" data-name="Group 23" transform="translate(297.319 -366.152)">
        <path id="Path_6" data-name="Path 6" d="M163.808,152.126l-.242-1.209c-1.2,2.819-4.263,4.317-6.022,6.262a47.647,47.647,0,0,0-4.832,6.262h1.82c8.091,0,10.446-5.461,9.275-11.314Z" transform="translate(-152.712 -150.917)" fill="#00cc76"/>
        <path id="Path_7" data-name="Path 7" d="M163.565,150.917l-.441.177c-1.087.435-2.194.812-3.316,1.143h0q-1,.3-2.021.545a6.684,6.684,0,0,0-5.075,6.487v4.173S160.277,158.666,163.565,150.917Z" transform="translate(-152.711 -150.917)" fill="#a5e887"/>
      </g>
    </g>
    <rect id="Rectangle_24" data-name="Rectangle 24" width="16" height="16" transform="translate(30 261)" fill="none"/>
  </g>
</svg>
