<svg xmlns="http://www.w3.org/2000/svg" width="16" height="16" viewBox="0 0 16 16">
  <path id="Path_24" data-name="Path 24" d="M1622.063-371.286h-.045a7.977,7.977,0,0,0-7.954,8,8,8,0,0,0,8,8,8,8,0,0,0,8-8A8,8,0,0,0,1622.063-371.286Zm0,12.933a1.156,1.156,0,0,1-1.156-1.156,1.156,1.156,0,0,1,1.156-1.156,1.156,1.156,0,0,1,1.156,1.156A1.156,1.156,0,0,1,1622.063-358.352Zm1.946-4.569-.79.671v1.007h-2.312v-2.076l1.6-1.364a.694.694,0,0,0,.246-.529.7.7,0,0,0-.694-.694.7.7,0,0,0-.694.694v.289h-2.313v-.289a3.01,3.01,0,0,1,3.006-3.006,3.01,3.01,0,0,1,3.006,3.006A3,3,0,0,1,1624.009-362.921Z" transform="translate(-1614.063 371.286)" fill="#ccc"/>
</svg>
