<svg xmlns="http://www.w3.org/2000/svg" width="16" height="16" viewBox="0 0 16 16">
  <path id="Path_25" data-name="Path 25" d="M-676.05-119.209h-.046a7.977,7.977,0,0,0-7.954,8,8,8,0,0,0,8,8,8,8,0,0,0,8-8A8,8,0,0,0-676.05-119.209Zm1.05,12.233a.183.183,0,0,1-.183.183h-1.735a.183.183,0,0,1-.183-.183v-1.6a.183.183,0,0,1,.183-.183h1.735a.183.183,0,0,1,.183.183Zm0-2.9a.183.183,0,0,1-.183.178h-1.742a.183.183,0,0,1-.183-.178l-.154-5.56a.182.182,0,0,1,.052-.133.183.183,0,0,1,.131-.055h2.049a.183.183,0,0,1,.131.055.183.183,0,0,1,.052.133Z" transform="translate(684.05 119.209)" fill="#ffed47"/>
</svg>
