<?xml version="1.0" encoding="utf-8"?>
<!-- Generator: Adobe Illustrator 24.0.1, SVG Export Plug-In . SVG Version: 6.00 Build 0)  -->
<svg version="1.1" id="Layer_1" xmlns="http://www.w3.org/2000/svg" xmlns:xlink="http://www.w3.org/1999/xlink" x="0px" y="0px"
	 viewBox="0 0 447 447" style="enable-background:new 0 0 447 447;" xml:space="preserve">
<style type="text/css">
	.st0{fill:#FFFFFF;}
</style>
<g>
	<path class="st0" d="M162.3,223.5c0-12.8,0.5-25.6,1.6-38.2H91.4c-3.5,12.1-5.4,24.9-5.4,38.2c0,13.2,1.9,26,5.4,38.2H164
		C162.9,249.1,162.3,236.3,162.3,223.5z"/>
	<path class="st0" d="M187.6,90.8c-38.2,10.4-69.8,36.8-87.2,71.5h66.2C170.7,134.1,177.7,108.8,187.6,90.8z"/>
	<path class="st0" d="M247.7,121.8C239.5,97.1,229.6,86,223.5,86s-16,11.1-24.2,35.8c-4,11.9-7.2,25.6-9.5,40.5h67.4
		C254.9,147.4,251.7,133.7,247.7,121.8z"/>
	<path class="st0" d="M185.3,223.5c0,13.1,0.6,25.9,1.7,38.2H260c1.1-12.3,1.7-25.1,1.7-38.2c0-13.1-0.6-25.9-1.7-38.2H187
		C185.9,197.6,185.3,210.4,185.3,223.5z"/>
	<path class="st0" d="M346.6,162.3c-17.3-34.8-49-61.2-87.2-71.5c9.8,18,16.9,43.3,21,71.5H346.6z"/>
	<path class="st0" d="M259.4,356.2c38.2-10.4,69.8-36.8,87.2-71.5h-66.2C276.3,312.9,269.3,338.2,259.4,356.2z"/>
	<path class="st0" d="M100.4,284.7c17.3,34.8,49,61.2,87.2,71.5c-9.8-18-16.9-43.3-21-71.5H100.4z"/>
	<path class="st0" d="M283,185.3c1.1,12.5,1.6,25.4,1.6,38.2s-0.5,25.6-1.6,38.2h72.6c3.5-12.1,5.4-24.9,5.4-38.2
		c0-13.2-1.9-26-5.4-38.2H283z"/>
	<path class="st0" d="M223.5,0.6C100.4,0.6,0.6,100.4,0.6,223.5s99.8,222.9,222.9,222.9s222.9-99.8,222.9-222.9S346.6,0.6,223.5,0.6
		z M375.1,276.3c-0.1,0.5-0.3,1-0.5,1.4C352.3,339.6,293,384,223.5,384S94.7,339.6,72.4,277.8c-0.2-0.5-0.4-1-0.5-1.4
		C66.2,259.8,63,242,63,223.5c0-18.5,3.2-36.3,8.9-52.8c0.1-0.5,0.3-1,0.5-1.4C94.7,107.4,154,63,223.5,63s128.8,44.4,151.1,106.3
		c0.2,0.5,0.4,1,0.5,1.4c5.8,16.5,8.9,34.3,8.9,52.8C384,242,380.8,259.8,375.1,276.3z"/>
	<path class="st0" d="M199.3,325.2c8.2,24.7,18.1,35.8,24.2,35.8s16-11.1,24.2-35.8c4-11.9,7.2-25.6,9.5-40.5h-67.4
		C192.1,299.6,195.3,313.3,199.3,325.2z"/>
</g>
</svg>
