<?xml version="1.0" standalone="no"?>
<!DOCTYPE svg PUBLIC "-//W3C//DTD SVG 20010904//EN"
 "http://www.w3.org/TR/2001/REC-SVG-20010904/DTD/svg10.dtd">
<svg version="1.0" xmlns="http://www.w3.org/2000/svg"
 width="700.000000pt" height="700.000000pt" viewBox="0 0 700.000000 700.000000"
 preserveAspectRatio="xMidYMid meet">
<metadata>
Created by potrace 1.14, written by Peter Selinger 2001-2017
</metadata>
<g transform="translate(0.000000,700.000000) scale(0.100000,-0.100000)"
fill="#000000" stroke="none">
<path d="M844 6640 c-92 -24 -136 -43 -203 -87 -132 -87 -230 -221 -275 -373
l-24 -85 -1 -591 -2 -590 24 -34 c28 -42 60 -60 110 -60 51 0 93 26 113 69 15
31 17 98 19 616 1 520 3 585 19 625 43 115 131 203 246 246 40 16 104 18 611
19 311 1 582 5 601 9 81 15 124 121 78 194 -39 63 -30 62 -668 61 -526 0 -583
-2 -648 -19z"/>
<path d="M4893 6645 c-59 -25 -88 -104 -64 -168 6 -14 26 -37 45 -52 l36 -27
588 -3 c642 -2 622 0 717 -62 74 -47 119 -104 157 -195 21 -52 22 -62 23 -633
1 -521 3 -584 18 -615 44 -91 174 -95 227 -7 19 31 20 54 20 607 0 622 -2 644
-55 771 -81 194 -251 333 -467 384 -91 21 -1197 21 -1245 0z"/>
<path d="M3385 6161 c-16 -10 -41 -32 -55 -48 -125 -153 -610 -639 -870 -873
-46 -41 -88 -80 -94 -85 -18 -18 -296 -256 -387 -332 -106 -89 -250 -235 -324
-328 -192 -240 -352 -557 -425 -841 -22 -85 -24 -94 -40 -184 -10 -54 -13 -76
-28 -195 -9 -73 -8 -325 2 -415 21 -190 59 -362 114 -520 46 -130 58 -157 205
-460 49 -102 117 -243 152 -315 34 -71 104 -215 155 -320 51 -104 114 -236
141 -292 72 -149 43 -141 509 -138 328 2 577 9 675 20 17 1 63 6 104 10 41 4
84 9 95 11 12 2 44 6 71 10 175 19 527 106 720 176 918 335 1488 1006 1679
1978 15 75 19 101 31 195 4 28 8 60 10 73 24 152 23 617 -1 822 -8 70 -44 332
-49 360 -53 284 -106 525 -119 545 -39 59 -119 81 -188 51 -18 -8 -49 -21 -68
-29 -82 -36 -498 -189 -650 -240 -259 -86 -310 -101 -319 -91 -4 5 -25 54 -46
109 -47 120 -194 417 -266 535 -28 47 -57 95 -63 107 -6 13 -14 23 -18 23 -5
0 -8 4 -8 10 0 30 -436 621 -489 663 -42 33 -110 37 -156 8z m85 -372 c8 -12
33 -45 55 -73 170 -214 335 -470 458 -709 65 -126 167 -358 167 -381 0 -14
-10 -17 -370 -111 -293 -76 -394 -111 -575 -200 -227 -111 -417 -247 -601
-431 -137 -137 -223 -248 -361 -469 -32 -50 -124 -249 -156 -335 -61 -164
-109 -358 -132 -540 -5 -35 -16 -708 -15 -904 0 -35 -6 -27 -66 95 -66 133
-127 261 -229 474 -93 195 -150 379 -182 580 -17 113 -24 391 -12 480 5 33 11
85 15 115 18 163 116 455 211 630 41 75 137 227 152 240 3 3 19 23 36 45 75
102 199 225 366 364 99 84 320 275 375 326 6 5 55 51 109 100 204 186 521 500
671 663 31 34 60 62 63 62 4 0 13 -10 21 -21z m1685 -1311 c-187 -350 -406
-695 -646 -1018 -103 -139 -310 -403 -328 -420 -4 -3 -28 -32 -56 -65 -304
-364 -821 -877 -1245 -1236 -232 -196 -628 -501 -640 -494 -8 5 -4 1195 4
1250 31 210 61 335 113 475 183 493 562 902 1033 1111 137 61 220 89 415 139
488 126 959 272 1385 428 30 11 57 19 59 17 2 -3 -40 -87 -94 -187z m345 -115
c7 -48 14 -95 15 -103 3 -14 9 -61 20 -155 24 -202 24 -644 0 -810 -2 -16 -9
-66 -15 -110 -7 -44 -25 -137 -40 -207 -167 -744 -614 -1297 -1291 -1594 -205
-91 -478 -173 -689 -209 -19 -3 -42 -8 -50 -10 -8 -3 -37 -7 -65 -10 -27 -3
-61 -7 -75 -10 -35 -7 -135 -17 -286 -30 -121 -10 -477 -14 -468 -5 5 4 72 56
149 115 223 172 517 420 735 620 216 199 663 659 831 855 40 47 75 87 79 90
13 10 260 320 351 440 280 370 527 760 749 1182 13 26 27 45 30 43 4 -2 12
-44 20 -92z"/>
<path d="M402 2160 c-64 -40 -63 -28 -59 -683 2 -326 6 -605 11 -622 4 -16 21
-63 37 -104 71 -177 209 -308 398 -375 l86 -31 597 -3 c511 -3 601 -1 632 12
113 47 93 218 -29 243 -22 5 -283 8 -580 7 -582 -1 -603 0 -690 52 -85 49
-146 122 -181 214 -16 40 -18 104 -19 611 -1 311 -5 581 -9 600 -15 82 -121
125 -194 79z"/>
<path d="M6463 2163 c-67 -34 -66 -24 -68 -663 -1 -558 -2 -577 -22 -632 -34
-92 -80 -148 -167 -205 -89 -58 -73 -56 -687 -58 -311 -1 -582 -5 -601 -9 -81
-15 -124 -121 -78 -194 40 -64 28 -63 688 -60 594 4 597 4 667 27 227 75 391
253 452 488 12 49 16 1194 3 1235 -21 74 -112 108 -187 71z"/>
</g>
</svg>
