<svg xmlns="http://www.w3.org/2000/svg" viewBox="0 0 462.27 462.27"><defs><style>.cls-1{fill:#fff;}</style></defs><title>frame</title><g id="Layer_2" data-name="Layer 2"><g id="_1_px" data-name="1 px"><path class="cls-1" d="M452.64,134.83A9.63,9.63,0,0,1,443,125.2V48.15a28.93,28.93,0,0,0-28.9-28.89h-77a9.63,9.63,0,1,1,0-19.26h77a48.21,48.21,0,0,1,48.16,48.15V125.2A9.64,9.64,0,0,1,452.64,134.83Z"/><path class="cls-1" d="M414.11,462.27h-77a9.63,9.63,0,0,1,0-19.26h77a28.94,28.94,0,0,0,28.9-28.9v-77a9.63,9.63,0,0,1,19.26,0v77A48.22,48.22,0,0,1,414.11,462.27Z"/><path class="cls-1" d="M125.2,462.27H48.15A48.21,48.21,0,0,1,0,414.11v-77a9.63,9.63,0,0,1,19.26,0v77A28.93,28.93,0,0,0,48.15,443H125.2a9.63,9.63,0,1,1,0,19.26Z"/><path class="cls-1" d="M9.63,134.83A9.63,9.63,0,0,1,0,125.2V48.15A48.2,48.2,0,0,1,48.15,0H125.2a9.63,9.63,0,1,1,0,19.26H48.15A28.92,28.92,0,0,0,19.26,48.15V125.2A9.63,9.63,0,0,1,9.63,134.83Z"/></g></g></svg>