<svg xmlns="http://www.w3.org/2000/svg" xmlns:xlink="http://www.w3.org/1999/xlink" viewBox="0 0 512 512"><defs><style>.cls-1{fill:none;}.cls-2{fill:url(#linear-gradient);}.cls-3{fill:url(#linear-gradient-2);}.cls-4{fill:url(#linear-gradient-3);}.cls-5{fill:url(#linear-gradient-4);}.cls-6{fill:#00aa95;}.cls-7{fill:#00cc76;}.cls-8{fill:#a5e887;}</style><linearGradient id="linear-gradient" x1="352.31" y1="92.28" x2="487.13" y2="92.28" gradientUnits="userSpaceOnUse"><stop offset="0" stop-color="#00aa95"/><stop offset="1" stop-color="#00cc76"/></linearGradient><linearGradient id="linear-gradient-2" x1="352.31" y1="419.72" x2="487.13" y2="419.72" xlink:href="#linear-gradient"/><linearGradient id="linear-gradient-3" x1="24.87" y1="419.72" x2="159.69" y2="419.72" xlink:href="#linear-gradient"/><linearGradient id="linear-gradient-4" x1="24.87" y1="92.28" x2="159.69" y2="92.28" xlink:href="#linear-gradient"/></defs><title>logo</title><g id="Layer_2" data-name="Layer 2"><g id="_1_px" data-name="1 px"><rect class="cls-1" width="512" height="512"/><path class="cls-2" d="M477.5,159.69a9.63,9.63,0,0,1-9.63-9.63V73A28.92,28.92,0,0,0,439,44.13h-77a9.63,9.63,0,1,1,0-19.26h77A48.2,48.2,0,0,1,487.13,73v77A9.63,9.63,0,0,1,477.5,159.69Z"/><path class="cls-3" d="M439,487.13h-77a9.63,9.63,0,0,1,0-19.26h77A28.92,28.92,0,0,0,467.87,439v-77a9.63,9.63,0,0,1,19.26,0v77A48.2,48.2,0,0,1,439,487.13Z"/><path class="cls-4" d="M150.06,487.13H73A48.2,48.2,0,0,1,24.87,439v-77a9.63,9.63,0,0,1,19.26,0v77A28.92,28.92,0,0,0,73,467.87h77a9.63,9.63,0,0,1,0,19.26Z"/><path class="cls-5" d="M34.5,159.69a9.63,9.63,0,0,1-9.63-9.63V73A48.2,48.2,0,0,1,73,24.87h77a9.63,9.63,0,0,1,0,19.26H73A28.92,28.92,0,0,0,44.13,73v77A9.63,9.63,0,0,1,34.5,159.69Z"/><path class="cls-6" d="M152.71,441.83l-42.2-87.26a155.26,155.26,0,0,1,40.54-187c33.41-27.71,65.29-57.21,94.54-89.28L253,70.17,270.31,93c21.34,28.19,37.62,58.16,47.24,88.54Z"/><path class="cls-7" d="M410.44,179l-5.62-28.09C377,216.4,305.79,251.19,265,296.37c-71.42,79-112.24,145.46-112.24,145.46H195C383,441.83,437.64,315,410.44,179Z"/><path class="cls-8" d="M404.82,150.92,394.58,155c-25.24,10.1-51,18.85-77,26.54h0q-23.31,6.87-46.95,12.67A155.24,155.24,0,0,0,152.71,344.9v96.93S328.46,330.91,404.82,150.92Z"/></g></g></svg>