<svg xmlns="http://www.w3.org/2000/svg" viewBox="0 0 512 512"><defs><style>.cls-1,.cls-2{fill:none;}.cls-1{stroke:#fff;stroke-linecap:round;stroke-linejoin:round;stroke-width:21px;}.cls-3{fill:#fff;}</style></defs><title>logo-white</title><g id="Layer_2" data-name="Layer 2"><g id="_1_px" data-name="1 px"><path class="cls-1" d="M404.82,150.92,394.58,155c-25.24,10.1-51,18.85-77,26.54h0q-23.31,6.87-46.95,12.67A155.24,155.24,0,0,0,152.71,344.9v96.93S328.46,330.91,404.82,150.92Z"/><path class="cls-1" d="M410.44,179l-5.62-28.09a.36.36,0,0,1,0,.09c-76.36,179.89-252,290.76-252.07,290.82H195C383,441.83,437.64,315,410.44,179Z"/><rect class="cls-2" width="512" height="512"/><path class="cls-3" d="M477.5,159.69a9.63,9.63,0,0,1-9.63-9.63V73A28.92,28.92,0,0,0,439,44.13h-77a9.63,9.63,0,1,1,0-19.26h77A48.2,48.2,0,0,1,487.13,73v77A9.63,9.63,0,0,1,477.5,159.69Z"/><path class="cls-3" d="M439,487.13h-77a9.63,9.63,0,0,1,0-19.26h77A28.92,28.92,0,0,0,467.87,439v-77a9.63,9.63,0,0,1,19.26,0v77A48.2,48.2,0,0,1,439,487.13Z"/><path class="cls-3" d="M150.06,487.13H73A48.2,48.2,0,0,1,24.87,439v-77a9.63,9.63,0,0,1,19.26,0v77A28.92,28.92,0,0,0,73,467.87h77a9.63,9.63,0,0,1,0,19.26Z"/><path class="cls-3" d="M34.5,159.69a9.63,9.63,0,0,1-9.63-9.63V73A48.2,48.2,0,0,1,73,24.87h77a9.63,9.63,0,0,1,0,19.26H73A28.92,28.92,0,0,0,44.13,73v77A9.63,9.63,0,0,1,34.5,159.69Z"/><polygon class="cls-1" points="152.71 441.83 152.71 441.83 152.71 441.82 152.71 441.83"/><path class="cls-1" d="M152.71,344.9A155.24,155.24,0,0,1,270.6,194.23q23.63-5.83,46.95-12.67h0c-9.62-30.38-25.9-60.35-47.24-88.54L253,70.17l-7.43,8.15c-29.25,32.07-61.13,61.57-94.54,89.28a155.26,155.26,0,0,0-40.54,187l42.2,87.25Z"/></g></g></svg>