<?xml version="1.0" encoding="utf-8"?>
<!-- Generator: Adobe Illustrator 24.0.1, SVG Export Plug-In . SVG Version: 6.00 Build 0)  -->
<svg version="1.1" id="Layer_1" xmlns="http://www.w3.org/2000/svg" xmlns:xlink="http://www.w3.org/1999/xlink" x="0px" y="0px"
	 viewBox="0 0 512 512" style="enable-background:new 0 0 512 512;" xml:space="preserve">
<style type="text/css">
	.st0{fill:#FFFFFF;}
	.st1{fill:none;}
</style>
<title>logo-white</title>
<g id="Layer_2_1_">
	<g id="_1_px">
		<g>
			<path class="st0" d="M152.7,452.3c-1.7,0-3.5-0.4-5.1-1.3c-3.4-1.8-5.4-5.4-5.4-9.2v-96.9c0-76.4,51.8-142.5,125.9-160.9
				c15.6-3.8,31.2-8,46.5-12.5c26.8-7.9,52.4-16.8,76.1-26.2l10.3-4.1c3.9-1.6,8.4-0.6,11.4,2.4c3,3,3.8,7.5,2.2,11.4
				c-40.2,94.7-107.6,170-157.2,216.5c-53.6,50.3-97.2,78-99,79.2C156.6,451.8,154.7,452.3,152.7,452.3z M384.5,170.2
				c-20.2,7.6-41.7,14.8-63.9,21.4c-15.6,4.6-31.6,8.9-47.4,12.8c-64.7,16-109.9,73.8-109.9,140.5v77c17.4-12.4,47-34.9,80.1-66
				C287.1,314.7,345.3,250.4,384.5,170.2z"/>
		</g>
		<g>
			<path class="st0" d="M195,452.3C195,452.3,195,452.3,195,452.3h-42.3c-4.4,0-8.3-2.7-9.8-6.8c-1.5-4.1-0.4-8.7,3-11.6
				c0.4-0.3,0.9-0.7,1.3-1c7.1-4.5,174.1-112.8,247.7-285.3c1.2-3.6,4.3-6.4,8.3-7.1c5.6-0.9,10.9,2.7,12,8.3l5.6,28.1c0,0,0,0,0,0
				c16.2,81.1,3,152.7-37.2,201.7c-19.2,23.5-44.4,41.6-74.9,54C276.5,445.7,238.3,452.3,195,452.3z M186,431.3h9c0,0,0,0,0,0
				c78.4,0,136.4-22.2,172.3-66c35.5-43.4,47.4-107.4,33.5-180.7C339.2,307.3,235.4,394.5,186,431.3z"/>
		</g>
		<g>
			<rect class="st1" width="512" height="512"/>
		</g>
		<g>
			<path class="st0" d="M477.5,159.7c-5.3,0-9.6-4.3-9.6-9.6c0,0,0,0,0,0V73c0-15.9-12.9-28.8-28.9-28.9h-77c-5.3,0-9.6-4.3-9.6-9.6
				s4.3-9.6,9.6-9.6h77c26.6,0,48.1,21.6,48.1,48.1v77C487.2,155.3,482.9,159.7,477.5,159.7C477.5,159.7,477.5,159.7,477.5,159.7z"
				/>
		</g>
		<g>
			<path class="st0" d="M439,487.1h-77c-5.3,0-9.6-4.3-9.6-9.6s4.3-9.6,9.6-9.6h77c15.9,0,28.8-12.9,28.9-28.9v-77
				c0-5.3,4.3-9.6,9.6-9.6s9.6,4.3,9.6,9.6v77C487.1,465.6,465.6,487.1,439,487.1z"/>
		</g>
		<g>
			<path class="st0" d="M150.1,487.1H73c-26.6,0-48.1-21.6-48.1-48.1v-77c0-5.3,4.3-9.6,9.6-9.6s9.6,4.3,9.6,9.6v77
				c0,15.9,12.9,28.8,28.9,28.9h77c5.3,0,9.6,4.3,9.6,9.6S155.3,487.1,150.1,487.1L150.1,487.1L150.1,487.1z"/>
		</g>
		<g>
			<path class="st0" d="M34.5,159.7c-5.3,0-9.6-4.3-9.6-9.6l0,0V73c0-26.6,21.6-48.1,48.1-48.1h77c5.3,0,9.6,4.3,9.6,9.6
				s-4.3,9.6-9.6,9.6H73c-15.9,0-28.8,12.9-28.9,28.9v77C44.2,155.3,39.9,159.7,34.5,159.7C34.5,159.7,34.5,159.7,34.5,159.7z"/>
		</g>
		<g>
			<path class="st0" d="M152.7,452.3c-5.8,0-10.5-4.7-10.5-10.5v0c0-5.8,4.7-10.5,10.5-10.5s10.5,4.7,10.5,10.5
				S158.5,452.3,152.7,452.3z"/>
		</g>
		<g>
			<path class="st0" d="M152.7,452.4c-4,0-7.7-2.2-9.4-5.9L101,359.2c-33.2-68.7-15.4-150.8,43.3-199.6
				c35.9-29.7,66.4-58.6,93.5-88.3l7.4-8.1c2.1-2.3,5.1-3.6,8.2-3.4c3.1,0.1,6,1.7,7.9,4.1l17.3,22.9c22.6,29.9,39.1,60.8,48.9,91.7
				c0.9,2.7,0.6,5.6-0.7,8.1s-3.6,4.3-6.3,5.1c-15.6,4.6-31.6,8.9-47.4,12.8c-64.7,16-109.9,73.8-109.9,140.5v0l0,96.9
				c0,4.9-3.4,9.1-8.2,10.2C154.3,452.3,153.5,452.4,152.7,452.4z M252.3,86.6c-27.5,30-58.4,59.1-94.5,89.1
				C106.5,218.3,90.9,290,119.9,350l22.3,46l0-51.1c0-76.3,51.8-142.5,125.9-160.9c12-3,24-6.1,36-9.5
				c-9.3-25.3-23.4-50.5-42.1-75.2L252.3,86.6z M152.7,344.9L152.7,344.9L152.7,344.9z"/>
		</g>
	</g>
</g>
</svg>
