<svg xmlns="http://www.w3.org/2000/svg" viewBox="0 0 367.8 367.8"><defs><style>.cls-1{fill:#ddd162;}</style></defs><title>maybe</title><g id="Layer_2" data-name="Layer 2"><g id="_1_px" data-name="1 px"><path class="cls-1" d="M183.9,0h-1C81.58.29-.29,82.62,0,183.9,0,285.47,82.34,367.8,183.9,367.8A183.89,183.89,0,0,0,367.8,183.9C367.8,82.34,285.47,0,183.9,0Zm0,297.31a26.58,26.58,0,1,1,26.58-26.58A26.58,26.58,0,0,1,183.9,297.31Zm44.73-105-18.15,15.43v23.15H157.32V183.13l36.89-31.36A16,16,0,1,0,168,139.6v6.65H114.79V139.6a69.11,69.11,0,1,1,113.84,52.68Z"/></g></g></svg>